<svg width="114" height="58" viewBox="0 0 114 58" fill="none" xmlns="http://www.w3.org/2000/svg">
<path d="M38.7 8.7C38.7 12 38.0667 16.5167 36.8 22.25C35.5333 27.95 34.2333 32.9167 32.9 37.15C31.5667 41.3833 30.7 43.6833 30.3 44.05C29.9 44.45 28.9667 44.8 27.5 45.1C26.0667 45.4 24.9667 45.55 24.2 45.55C23.4333 45.55 23.05 45.5 23.05 45.4C22.9833 45.1333 22.6667 43.4333 22.1 40.3C20.4333 31.5333 19.4833 26.8833 19.25 26.35C19.0167 25.7833 18.8667 25.5 18.8 25.5L18.55 25.8C17.7167 27.8667 16.7667 31.1 15.7 35.5C14.6667 39.8667 14.15 42.3667 14.15 43C14.15 43.1333 13.8333 43.3167 13.2 43.55C11.4667 44.1833 9.76667 44.5 8.1 44.5C7.73333 44.5 7.5 44.45 7.4 44.35C6.5 43.45 5.11667 38.55 3.25 29.65C1.41667 20.7167 0.5 14.4333 0.5 10.8C0.5 10.7333 0.666667 10.6 1 10.4C2.13333 9.83333 3.36667 9.56666 4.7 9.6C6.06667 9.6 6.75 9.63333 6.75 9.7C6.98333 14.0333 7.46667 18.6 8.2 23.4C8.96667 28.1667 9.7 31.4333 10.4 33.2C10.4667 33.4333 10.5333 33.55 10.6 33.55C10.7 33.55 10.8 33.4333 10.9 33.2C13.6333 22.6333 15.3 17.0333 15.9 16.4C17.1 15.9333 18.7833 15.7 20.95 15.7C22.15 15.7667 22.8 15.85 22.9 15.95C23 16.05 23.3333 17.45 23.9 20.15C24.4667 22.8167 25.0833 25.7833 25.75 29.05C26.4167 32.2833 26.8167 34.2333 26.95 34.9C27.1167 35.5333 27.3333 35.5 27.6 34.8C28.1667 33.2333 28.8833 30.3833 29.75 26.25C30.6167 22.1167 31.05 18.2167 31.05 14.55C31.05 14.1833 30.7333 13.8333 30.1 13.5C29.5 13.1333 28.8833 12.9167 28.25 12.85C28.2167 12.75 28.2 12.55 28.2 12.25C28.2 11.9167 28.2667 11.45 28.4 10.85C28.5667 10.2167 28.7 9.85 28.8 9.75C31.8333 8.95 34.8667 8.55 37.9 8.55C38.4333 8.61667 38.7 8.66666 38.7 8.7Z" fill="#EC5C8C"/>
<path d="M58.859 34.45C59.8257 33.4833 60.6423 32.1833 61.309 30.55C61.9757 28.8833 62.309 27.1167 62.309 25.25C62.309 23.3833 61.9757 21.8 61.309 20.5C60.6423 19.1667 59.859 18.1667 58.959 17.5C58.059 16.8 57.0257 16.2333 55.859 15.8C54.059 15.1333 52.3423 14.8 50.709 14.8C50.2757 14.8 50.059 14.8167 50.059 14.85C49.8257 15.0833 49.709 19.0167 49.709 26.65C49.709 34.2833 49.8257 38.2167 50.059 38.45C50.1257 38.5167 50.359 38.55 50.759 38.55C51.1923 38.55 51.8257 38.4333 52.659 38.2C53.5257 37.9667 54.5257 37.5333 55.659 36.9C56.8257 36.2333 57.8923 35.4167 58.859 34.45ZM43.359 35.4L43.509 15.65C43.1423 15.0833 42.6757 14.0833 42.109 12.65C41.5423 11.1833 41.259 10.3167 41.259 10.05C41.259 9.75 41.2757 9.58333 41.309 9.55C41.6423 9.21667 43.609 9.05 47.209 9.05C54.1423 9.05 59.4923 10.5 63.259 13.4C67.059 16.3 68.959 20.1833 68.959 25.05C68.959 27.45 68.5757 29.6667 67.809 31.7C67.0423 33.7 66.009 35.4 64.709 36.8C63.4423 38.1667 62.009 39.3833 60.409 40.45C58.8423 41.4833 57.1757 42.3 55.409 42.9C51.9423 44.0333 48.7923 44.6 45.959 44.6C44.6257 44.6 43.859 44.5 43.659 44.3C43.459 44.1 43.359 41.1333 43.359 35.4ZM84.509 27.1C84.509 26.1333 83.9923 25.65 82.959 25.65C81.5923 25.65 80.3923 26.35 79.359 27.75C78.3257 29.15 77.809 30.8333 77.809 32.8C77.809 33.2667 77.8757 33.5 78.009 33.5C79.209 33.4667 80.5923 32.7833 82.159 31.45C83.7257 30.0833 84.509 28.6333 84.509 27.1ZM88.859 43C87.7257 43.7667 85.509 44.15 82.209 44.15C78.909 44.15 76.3757 43.1667 74.609 41.2C72.8423 39.2333 71.959 36.6167 71.959 33.35C71.959 30.05 73.009 27.2 75.109 24.8C77.2423 22.3667 80.2257 21.15 84.059 21.15C85.6257 21.15 87.059 21.5667 88.359 22.4C89.6923 23.2333 90.359 24.7 90.359 26.8C90.359 28.8667 89.4423 30.9167 87.609 32.95C85.809 34.9833 83.3423 36.5333 80.209 37.6C80.209 38 80.609 38.3333 81.409 38.6C82.2423 38.8333 83.059 38.95 83.859 38.95C86.3923 38.95 88.3923 38.5 89.859 37.6C89.8923 37.5667 89.9423 37.55 90.009 37.55C90.0757 37.55 90.109 37.8667 90.109 38.5C90.109 40.4333 89.6923 41.9333 88.859 43ZM100.752 44.1C99.8182 44.1 99.0516 44 98.4516 43.8C98.4516 43.1 97.3849 39.5833 95.2516 33.25C93.1516 26.8833 92.1016 23.0333 92.1016 21.7C92.1016 21.6333 92.2682 21.5 92.6016 21.3C92.9682 21.0667 93.5849 20.8333 94.4516 20.6C95.3182 20.3667 96.3016 20.25 97.4016 20.25C99.4349 28.5167 100.968 33.8 102.002 36.1C102.035 36.2667 102.102 36.2667 102.202 36.1C102.802 35.0333 103.718 32.2167 104.952 27.65C106.185 23.05 106.868 20.05 107.002 18.65C107.035 18.45 107.402 18.2833 108.102 18.15C108.802 17.9833 109.718 17.9 110.852 17.9C111.985 17.9 112.752 18.0667 113.152 18.4C113.152 19.3667 111.968 23.6833 109.602 31.35C107.235 38.9833 105.918 42.9333 105.652 43.2C105.185 43.6667 103.902 43.95 101.802 44.05L100.752 44.1Z" fill="black"/>
</svg>
